<svg xmlns="http://www.w3.org/2000/svg" viewBox="0 0 350.692 350.692" width="60" height="60"><g fill="#fdc14a"><path d="M345.19 67.128H5.502C2.462 67.128 0 69.59 0 72.63v205.43c0 3.04 2.463 5.504 5.502 5.504H345.19c3.04 0 5.503-2.464 5.503-5.504V72.63c0-3.04-2.465-5.502-5.503-5.502zm-5.504 205.43H11.006V78.134h328.68v194.424z"/><path d="M89.194 175.28c18.475 0 33.505-15.035 33.505-33.518s-15.03-33.52-33.506-33.52-33.507 15.037-33.507 33.52 15.032 33.52 33.507 33.52zm0-56.03c12.405 0 22.5 10.1 22.5 22.512 0 12.414-10.095 22.513-22.5 22.513-12.407 0-22.5-10.1-22.5-22.513 0-12.413 10.093-22.513 22.5-22.513zM47.994 242.585c3.04 0 5.503-2.464 5.503-5.503v-15.557c0-11.908 9.69-21.597 21.603-21.597h28.418c11.91 0 21.602 9.69 21.602 21.597v15.557c0 3.04 2.464 5.503 5.503 5.503 3.04 0 5.503-2.464 5.503-5.503v-15.557c0-17.977-14.627-32.603-32.607-32.603H75.1c-17.98 0-32.608 14.626-32.608 32.603v15.557c0 3.04 2.463 5.503 5.502 5.503zM151.927 119.25H302.7c3.04 0 5.505-2.466 5.505-5.505 0-3.04-2.465-5.502-5.504-5.502H151.928c-3.04 0-5.503 2.463-5.503 5.502 0 3.04 2.464 5.504 5.503 5.504zM302.7 231.58H193.52c-3.04 0-5.502 2.464-5.502 5.503 0 3.04 2.463 5.503 5.502 5.503h109.182c3.04 0 5.504-2.464 5.504-5.503 0-3.04-2.465-5.503-5.505-5.503zM302.7 171.44h-67.87c-3.04 0-5.504 2.464-5.504 5.503 0 3.04 2.464 5.504 5.503 5.504h67.87c3.04 0 5.505-2.465 5.505-5.504 0-3.04-2.464-5.502-5.504-5.502zM302.7 201.506h-67.87c-3.04 0-5.504 2.464-5.504 5.503 0 3.038 2.464 5.502 5.503 5.502h67.87c3.04 0 5.505-2.464 5.505-5.503 0-3.04-2.464-5.504-5.504-5.504z"/></g></svg>