<svg xmlns="http://www.w3.org/2000/svg" viewBox="0 0 231.087 231.087" width="60" height="60"><g fill="#fdc14a"><path d="M230.042 142.627c-1.87-2.744-5.612-3.452-8.355-1.58l-65.513 44.666-14.55-19.473c-1.526-2.036-4.24-2.977-6.788-2.13-3.185 1.06-4.908 4.502-3.848 7.687l11.908 35.785c.45 1.33 1.184 2.645 2.18 3.757 3.94 4.4 10.702 4.775 15.104.835l.777-.695 68.13-60.985c2.215-1.98 2.675-5.346.955-7.868z"/><path d="M120.21 190.676H12V28.186h158.43V153.01c0 3.312 2.687 6 6 6s6-2.688 6-6V22.185c0-3.313-2.687-6-6-6H6c-3.313 0-6 2.687-6 6v174.49c0 3.313 2.687 6 6 6h114.21c3.314 0 6-2.687 6-6 0-3.314-2.686-6-6-6z"/><path d="M139.694 53.855h-96.96c-3.312 0-6 2.687-6 6s2.688 6 6 6h96.96c3.313 0 6-2.687 6-6s-2.686-6-6-6zM139.694 79.79h-96.96c-3.312 0-6 2.687-6 6s2.688 6 6 6h96.96c3.313 0 6-2.687 6-6s-2.686-6-6-6zM139.694 105.725h-96.96c-3.312 0-6 2.687-6 6s2.688 6 6 6h96.96c3.313 0 6-2.687 6-6s-2.686-6-6-6zM145.694 137.66c0-3.314-2.687-6-6-6h-96.96c-3.312 0-6 2.686-6 6s2.688 6 6 6h96.96c3.314 0 6-2.687 6-6zM42.735 156.33c-3.313 0-6 2.686-6 6s2.687 6 6 6h48.48c3.312 0 6-2.688 6-6s-2.688-6-6-6h-48.48z"/></g></svg>