<svg xmlns="http://www.w3.org/2000/svg" viewBox="0 0 407.467 407.467" width="60" height="60"><g fill="#fdc14a"><path d="M403.36 320.228l-152.422-155.42L292 123.743l14.143 14.142 31.82-31.82L231.897 0l-31.82 31.82 14.143 14.14L97.547 162.635l-14.142-14.142-31.82 31.82 106.066 106.066 31.82-31.82-14.14-14.142 40.253-40.254 152.42 155.422 35.356-35.356zM221.29 31.818l10.606-10.605 84.854 84.853-10.607 10.607-3.535-3.535-77.78-77.782-3.538-3.537zm-53.032 222.74l-10.607 10.607L72.8 180.312l10.606-10.607 3.536 3.536 77.782 77.783 3.536 3.535zm-60.105-81.317L224.826 56.57l56.568 56.57-40.96 40.96-17.677 17.677-58.035 58.035-56.57-56.57zm132.177 2.174l141.92 144.71-14.144 14.143-141.917-144.71 14.14-14.143zM180.11 332.467h-156v30h-20v45h200v-45h-24v-30zm-141 15h126v15h-126v-15zm150 30v15h-170v-15h170z"/></g></svg>