<svg xmlns="http://www.w3.org/2000/svg" viewBox="0 0 264.355 264.355" width="60" height="60"><path fill="#fdc14a" d="M259.08 76.652L205.27 22.84c-3.408-3.407-7.937-5.283-12.755-5.283s-9.347 1.876-12.753 5.283l-12.646 12.645c-1.946 1.946-3.333 4.235-4.203 6.67l-59.168-10.593c-.004 0-.01 0-.013-.002-26.604-5.28-52.58 12.015-57.944 38.622l-2.73 13.537c-3.013 14.948 6.698 29.56 21.647 32.575 14.95 3.012 29.563-6.697 32.577-21.646l1.668-8.28 26.533 2.32 69.29 69.29 12.558 12.56c2.544 2.542 2.543 6.68 0 9.223-2.54 2.542-6.68 2.543-9.222 0l-33.64-33.64c-2.342-2.342-6.142-2.342-8.484 0-2.343 2.344-2.343 6.143 0 8.486l33.64 33.638c1.23 1.232 1.91 2.87 1.91 4.612s-.68 3.38-1.91 4.61c-2.545 2.544-6.682 2.543-9.224 0l-33.64-33.638c-2.342-2.343-6.142-2.343-8.484 0-2.343 2.343-2.343 6.142 0 8.485l33.64 33.64c2.542 2.54 2.542 6.68 0 9.222-1.233 1.23-2.87 1.91-4.612 1.91s-3.38-.68-4.612-1.91l-33.64-33.64c-2.342-2.343-6.142-2.343-8.484 0-2.343 2.343-2.343 6.142 0 8.485l33.64 33.64c2.542 2.542 2.54 6.68 0 9.223-2.543 2.542-6.68 2.543-9.224 0L25.96 113.868l-15.717-15.72c-2.343-2.342-6.143-2.342-8.485 0-2.343 2.344-2.343 6.143 0 8.486l15.718 15.718 17.105 17.105-9.428 9.43c-3.087 3.086-4.788 7.19-4.788 11.558 0 4.367 1.7 8.472 4.788 11.56l3.077 3.076c2.698 2.7 6.175 4.338 9.924 4.708.37 3.75 2.008 7.226 4.707 9.924l3.078 3.078c2.77 2.77 6.298 4.334 9.923 4.695.368 3.753 2.008 7.235 4.71 9.936l3.077 3.078c2.7 2.7 6.176 4.337 9.925 4.707.37 3.75 2.008 7.226 4.707 9.925l3.076 3.077c3.187 3.187 7.373 4.78 11.56 4.78s8.37-1.593 11.558-4.78l9.43-9.43 22.594 22.596c3.5 3.5 8.15 5.425 13.097 5.425s9.6-1.927 13.097-5.425c3.314-3.314 5.196-7.667 5.387-12.32 4.654-.192 9.006-2.074 12.32-5.388 3.417-3.416 5.196-7.845 5.38-12.33 4.484-.184 8.914-1.963 12.33-5.378 3.415-3.416 5.194-7.845 5.38-12.33 4.483-.184 8.913-1.963 12.328-5.38 7.222-7.22 7.222-18.97 0-26.193l-8.315-8.315 30.423-30.424 21.156-21.156c7.03-7.033 7.03-18.476 0-25.508zM33.638 163.518c-1.695-1.695-1.695-4.452 0-6.147l8.842-8.84 9.223 9.223-8.842 8.842c-1.693 1.695-4.452 1.694-6.146 0l-3.077-3.077zm17.71 17.71c-1.696-1.696-1.696-4.453 0-6.147l8.84-8.84 9.225 9.223-8.84 8.842c-1.696 1.694-4.455 1.695-6.148 0l-3.078-3.078zm17.707 17.708c-.82-.82-1.273-1.913-1.273-3.073s.453-2.252 1.274-3.073l8.842-8.842 9.223 9.223-8.843 8.843c-1.694 1.694-4.452 1.694-6.146 0l-3.076-3.077zm26.933 20.786c-1.694 1.695-4.453 1.694-6.147 0l-3.077-3.077c-1.695-1.695-1.695-4.452 0-6.147l8.842-8.842 9.224 9.224-8.843 8.842zm103.03-74.47l-66.593-66.59c-.998-1-2.314-1.613-3.72-1.735L94.65 73.95c-.176-.016-.352-.023-.526-.023-2.83 0-5.308 1.995-5.877 4.815l-2.73 13.537c-1.705 8.46-9.973 13.957-18.44 12.252-4.1-.826-7.633-3.2-9.947-6.683-2.314-3.484-3.134-7.66-2.307-11.76l2.73-13.536c4.065-20.17 23.773-33.275 43.95-29.204.042.008.085.017.128.024l58.307 10.44 7.18 7.178 58.08 58.08-26.18 26.18zm51.578-51.578l-16.914 16.914-58.08-58.08c-1.14-1.14-1.768-2.657-1.768-4.27s.628-3.128 1.768-4.27l12.646-12.645c1.14-1.14 2.656-1.768 4.268-1.768s3.128.628 4.27 1.768l53.81 53.812c1.14 1.14 1.77 2.656 1.77 4.27s-.63 3.13-1.77 4.27z"/><circle cx="236.071" cy="91.787" r="6"/></svg>